<?xml version="1.0" standalone="no"?>
<!DOCTYPE svg PUBLIC "-//W3C//DTD SVG 20010904//EN"
 "http://www.w3.org/TR/2001/REC-SVG-20010904/DTD/svg10.dtd">
<svg version="1.0" xmlns="http://www.w3.org/2000/svg"
 width="100.000000pt" height="100.000000pt" viewBox="0 0 100.000000 100.000000"
 preserveAspectRatio="xMidYMid meet">

<g transform="translate(0.000000,100.000000) scale(0.100000,-0.100000)"
fill="#000000" stroke="none">
<path d="M146 963 c-3 -7 -20 -13 -38 -13 -29 -1 -31 -2 -16 -14 14 -10 17
-25 14 -82 -3 -38 -7 -77 -11 -86 -4 -9 -1 -26 5 -38 15 -28 63 -24 68 5 5 26
22 46 33 39 15 -9 10 -53 -12 -104 -12 -27 -19 -56 -16 -64 4 -9 -14 -32 -49
-61 -50 -43 -54 -50 -48 -80 3 -18 1 -48 -4 -67 -8 -28 -5 -43 12 -79 11 -24
28 -44 36 -44 21 0 25 49 6 65 -18 14 -22 50 -6 50 6 0 10 -7 10 -15 0 -18 39
-35 81 -35 18 0 29 5 29 14 0 20 -27 39 -45 32 -19 -7 -65 35 -65 59 0 8 8 15
18 15 9 1 47 5 84 9 60 8 74 6 129 -16 34 -14 88 -30 121 -37 l60 -12 19 -53
c21 -62 17 -74 -38 -120 -33 -27 -37 -35 -37 -80 -1 -27 3 -53 7 -58 12 -12
37 26 37 57 0 27 27 58 89 100 33 23 34 23 48 4 25 -33 10 -69 -72 -183 -30
-41 -31 -51 -4 -51 30 0 59 18 59 37 0 9 6 21 14 27 7 6 33 49 56 95 l43 83
-18 34 c-18 33 -18 34 6 79 l24 46 3 -33 c7 -91 22 -121 90 -185 92 -86 113
-83 72 12 -11 25 -15 43 -10 40 15 -9 12 1 -10 37 -11 18 -20 40 -20 48 0 8
-13 42 -29 75 -21 46 -47 77 -110 132 -45 40 -94 75 -109 78 -65 13 -131 36
-142 50 -10 12 -9 15 8 15 25 0 36 15 25 33 -12 19 -12 36 -1 43 5 4 -2 19
-18 35 -21 22 -25 31 -15 42 9 12 4 18 -29 31 -22 9 -63 31 -90 50 -27 19 -71
39 -97 45 -60 14 -141 10 -147 -6z"/>
</g>
</svg>
